# xmcd
#
# Track frame offsets:
# 150
# 18222
# 25887
# 41452
# 42917
# 71300
# 73569
# 94522
# 117866
# 132614
# 139125
# 165917
# 176662
# 200975
# 205259
# 228835
# 248292
# 271917
# 273542
# 322014
# 333497
#
# Disc length: 4643 seconds
#
#
# Revision: 0
# Processed by: cddbd v1.5.2PL0 Copyright (c) Steve Scherf et al.
# Submitted via: FreeRIP 2.11 
#
DISCID=28122115
DTITLE=Bodo Wartke - Ich denke also sing ich
DYEAR=2009
DGENRE=Alternative
TTITLE0=Heidenröslein
TTITLE1=Ansprache
TTITLE2=Kain und Abel
TTITLE3=Ansprache 2
TTITLE4=Ich trau mich nicht
TTITLE5=Ansage Denkmal
TTITLE6=Ein Denkmal denkt
TTITLE7=Warum Ich
TTITLE8=Ein Ritter
TTITLE9=Ansage Melanie aus Paris
TTITLE10=Französich mit Melanie
TTITLE11=Manchmal ist es schön ein Mann zu sein
TTITLE12=Hör mal zu
TTITLE13=Pausengespräche
TTITLE14=Ja Schatz
TTITLE15=Gaffer
TTITLE16=Blauer Engel
TTITLE17=Absage
TTITLE18=Ich liebe Dich
TTITLE19=Das letzte Stück fehlt
TTITLE20=Das letzte Stück - wirklich
EXTD=
EXTT0=
EXTT1=
EXTT2=
EXTT3=
EXTT4=
EXTT5=
EXTT6=
EXTT7=
EXTT8=
EXTT9=
EXTT10=
EXTT11=
EXTT12=
EXTT13=
EXTT14=
EXTT15=
EXTT16=
EXTT17=
EXTT18=
EXTT19=
EXTT20=
PLAYORDER=
